<svg width="15" height="15" viewBox="0 0 15 15" fill="none" xmlns="http://www.w3.org/2000/svg">
<path d="M13.564 14.3392L8.80149 9.57585C6.68288 11.0821 3.76352 10.7136 2.08555 8.72829C0.407578 6.74294 0.530787 3.80301 2.36899 1.96502C4.2067 0.126223 7.14693 0.00248128 9.13264 1.68036C11.1184 3.35825 11.487 6.27789 9.98065 8.39668L14.7432 13.16L13.5648 14.3384L13.564 14.3392ZM5.90399 2.16667C4.32374 2.16632 2.9604 3.27558 2.63938 4.82288C2.31837 6.37018 3.12791 7.93024 4.57788 8.55855C6.02786 9.18685 7.71974 8.71071 8.62919 7.41839C9.53864 6.12608 9.41571 4.37278 8.33482 3.22002L8.83899 3.72002L8.27065 3.15335L8.26065 3.14335C7.63714 2.516 6.78848 2.16429 5.90399 2.16667Z" fill="white"/>
</svg>
